<?xml version="1.0" standalone="no"?>
<!DOCTYPE svg PUBLIC "-//W3C//DTD SVG 20010904//EN"
 "http://www.w3.org/TR/2001/REC-SVG-20010904/DTD/svg10.dtd">
<svg version="1.0" xmlns="http://www.w3.org/2000/svg"
 width="200.000000pt" height="200.000000pt" viewBox="0 0 200.000000 200.000000"
 preserveAspectRatio="xMidYMid meet">
<metadata>
Created by potrace 1.14, written by Peter Selinger 2001-2017
</metadata>
<g transform="translate(0.000000,200.000000) scale(0.100000,-0.100000)"
fill="#000000" stroke="none">
<path d="M682 1913 c-14 -12 -44 -91 -91 -239 -39 -122 -71 -229 -71 -237 0
-9 35 -72 78 -139 43 -68 81 -128 85 -135 8 -12 -2 -10 -163 38 l-65 19 -120
207 c-113 195 -122 208 -151 211 -35 3 -64 -18 -64 -48 0 -21 244 -449 265
-466 8 -6 68 -26 135 -44 170 -47 163 -60 -34 -60 -85 0 -161 -3 -170 -6 -26
-10 -306 -360 -306 -383 0 -22 32 -61 51 -61 26 0 55 30 175 180 l128 160 105
0 106 0 -102 -68 c-56 -37 -105 -74 -109 -82 -16 -39 -101 -636 -92 -652 21
-42 90 -41 103 1 2 9 23 135 45 281 22 146 42 275 45 287 5 20 140 123 162
123 4 0 16 -21 27 -46 28 -69 107 -148 184 -186 62 -31 74 -33 167 -33 88 0
107 3 157 27 96 45 153 108 215 236 0 2 37 -20 80 -49 l79 -52 43 -286 c24
-157 48 -294 52 -303 15 -28 46 -40 69 -28 42 22 41 35 -10 359 -27 172 -52
317 -56 322 -3 5 -49 39 -102 74 l-97 65 103 0 102 0 113 -137 c61 -75 121
-148 133 -161 36 -44 104 -24 104 30 0 14 -139 194 -268 348 l-30 35 -158 5
c-175 6 -204 17 -107 44 32 9 89 26 127 39 l69 22 128 223 c71 123 129 232
129 242 0 29 -29 51 -63 48 -29 -3 -39 -17 -151 -212 l-121 -210 -90 -28
c-162 -50 -157 -58 -60 93 47 72 85 142 85 154 0 29 -137 454 -151 472 -19 22
-67 16 -85 -12 -15 -23 -13 -33 50 -229 36 -112 66 -210 66 -216 0 -7 -30 -59
-66 -116 l-66 -103 -52 26 c-45 22 -52 29 -48 49 7 36 -17 92 -49 114 -86 62
-199 7 -199 -97 0 -38 -3 -45 -26 -53 -15 -6 -39 -19 -53 -30 l-27 -19 -67
108 c-37 59 -67 114 -67 122 0 8 29 102 65 209 36 107 65 202 65 210 0 44 -56
70 -88 43z m398 -852 c113 -60 99 -229 -23 -276 -74 -28 -156 6 -191 79 -22
47 -20 85 7 136 39 75 131 102 207 61z"/>
</g>
</svg>
